<svg id="visual" viewBox="0 0 900 600" width="900" height="600" xmlns="http://www.w3.org/2000/svg" xmlns:xlink="http://www.w3.org/1999/xlink" version="1.1"><path d="M0 474L21.5 464.7C43 455.3 86 436.7 128.8 436.2C171.7 435.7 214.3 453.3 257.2 444.3C300 435.3 343 399.7 385.8 385.2C428.7 370.7 471.3 377.3 514.2 384.8C557 392.3 600 400.7 642.8 396.3C685.7 392 728.3 375 771.2 366.3C814 357.7 857 357.3 878.5 357.2L900 357L900 601L878.5 601C857 601 814 601 771.2 601C728.3 601 685.7 601 642.8 601C600 601 557 601 514.2 601C471.3 601 428.7 601 385.8 601C343 601 300 601 257.2 601C214.3 601 171.7 601 128.8 601C86 601 43 601 21.5 601L0 601Z" fill="#FFFFFF" stroke-linecap="round" stroke-linejoin="miter"></path></svg>